<?xml version="1.0" encoding="iso-8859-1"?>
<!-- Uploaded to: SVG Repo, www.svgrepo.com, Generator: SVG Repo Mixer Tools -->
<svg fill="#000000" version="1.1" id="Layer_1" xmlns="http://www.w3.org/2000/svg" xmlns:xlink="http://www.w3.org/1999/xlink" 
	 viewBox="0 0 512 512" xml:space="preserve">
<g>
	<g>
		<g>
			<path d="M490.667,0H21.333C9.551,0,0,9.551,0,21.333v469.333C0,502.449,9.551,512,21.333,512h469.333
				c11.782,0,21.333-9.551,21.333-21.333V21.333C512,9.551,502.449,0,490.667,0z M469.333,469.333H42.667V42.667h426.667V469.333z"
				/>
			<rect x="85.333" y="85.333" width="128" height="128"/>
			<polygon points="362.667,85.333 298.667,213.333 426.667,213.333 			"/>
			<path d="M149.333,426.667c35.349,0,64-28.651,64-64c0-35.349-28.651-64-64-64c-35.349,0-64,28.651-64,64
				C85.333,398.016,113.984,426.667,149.333,426.667z"/>
			<polygon points="407.887,426.667 426.66,362.667 362.66,298.667 298.66,362.667 317.455,426.667 			"/>
		</g>
	</g>
</g>
</svg>